{
    "asset" : {
        "generator" : "Khronos glTF Blender I/O v3.3.32",
        "version" : "2.0"
    },
    "scene" : 0,
    "scenes" : [
        {
            "name" : "Scene",
            "nodes" : [
                0,
                1,
                2,
                3,
                4,
                5,
                6
            ]
        }
    ],
    "nodes" : [
        {
            "mesh" : 0,
            "name" : "inside",
            "translation" : [
                0,
                0.20242151618003845,
                0
            ]
        },
        {
            "mesh" : 1,
            "name" : "outside",
            "translation" : [
                0,
                0.20242151618003845,
                0
            ]
        },
        {
            "mesh" : 2,
            "name" : "tip",
            "translation" : [
                0,
                0.20242151618003845,
                0
            ]
        },
        {
            "mesh" : 3,
            "name" : "Text",
            "rotation" : [
                0.5,
                -0.5,
                0.5,
                0.5
            ],
            "scale" : [
                0.6001625061035156,
                0.6001625061035156,
                0.6001625061035156
            ],
            "translation" : [
                -0.6950756311416626,
                2.0127787590026855,
                0
            ]
        },
        {
            "mesh" : 4,
            "name" : "THANK YOU",
            "rotation" : [
                0.5,
                0.5,
                -0.5,
                0.5
            ],
            "scale" : [
                0.3152887225151062,
                0.3152887225151062,
                0.3152887225151062
            ],
            "translation" : [
                0.6341960430145264,
                2.215151071548462,
                -0.025875138118863106
            ]
        },
        {
            "mesh" : 5,
            "name" : "GERMAN",
            "rotation" : [
                0.7069499492645264,
                0,
                0,
                0.7072635889053345
            ],
            "scale" : [
                0.09274542331695557,
                0.09274542331695557,
                0.09274542331695557
            ],
            "translation" : [
                -0.18168966472148895,
                3.129206657409668,
                0.3756392300128937
            ]
        },
        {
            "mesh" : 6,
            "name" : "Text.001",
            "rotation" : [
                0.6151303648948669,
                0.34873297810554504,
                -0.34873300790786743,
                0.6151303052902222
            ],
            "scale" : [
                0.098354771733284,
                0.098354771733284,
                0.098354771733284
            ],
            "translation" : [
                0.2145996242761612,
                3.1288115978240967,
                0.3074386417865753
            ]
        }
    ],
    "materials" : [
        {
            "doubleSided" : true,
            "name" : "Material",
            "pbrMetallicRoughness" : {
                "baseColorFactor" : [
                    0.07144542783498764,
                    0.06064140051603317,
                    0.8000000715255737,
                    1
                ],
                "metallicFactor" : 0.8318182229995728
            }
        },
        {
            "doubleSided" : true,
            "name" : "carton",
            "pbrMetallicRoughness" : {
                "baseColorFactor" : [
                    0.14985431730747223,
                    0.16804014146327972,
                    0.8000000715255737,
                    1
                ],
                "metallicFactor" : 0,
                "roughnessFactor" : 0.5
            }
        },
        {
            "doubleSided" : true,
            "name" : "Material.001",
            "pbrMetallicRoughness" : {
                "baseColorFactor" : [
                    0.8000000715255737,
                    0.7184081077575684,
                    0.7001850008964539,
                    1
                ],
                "metallicFactor" : 0,
                "roughnessFactor" : 0.5
            }
        }
    ],
    "meshes" : [
        {
            "name" : "Circle.001",
            "primitives" : [
                {
                    "attributes" : {
                        "POSITION" : 0,
                        "NORMAL" : 1,
                        "TEXCOORD_0" : 2
                    },
                    "indices" : 3,
                    "material" : 0
                }
            ]
        },
        {
            "name" : "Circle.002",
            "primitives" : [
                {
                    "attributes" : {
                        "POSITION" : 4,
                        "NORMAL" : 5,
                        "TEXCOORD_0" : 6
                    },
                    "indices" : 7,
                    "material" : 1
                }
            ]
        },
        {
            "name" : "Circle.003",
            "primitives" : [
                {
                    "attributes" : {
                        "POSITION" : 8,
                        "NORMAL" : 9,
                        "TEXCOORD_0" : 10
                    },
                    "indices" : 11,
                    "material" : 1
                }
            ]
        },
        {
            "name" : "Text.001",
            "primitives" : [
                {
                    "attributes" : {
                        "POSITION" : 12,
                        "NORMAL" : 13,
                        "TANGENT" : 14,
                        "TEXCOORD_0" : 15
                    },
                    "indices" : 16,
                    "material" : 0
                }
            ]
        },
        {
            "name" : "Text.002",
            "primitives" : [
                {
                    "attributes" : {
                        "POSITION" : 17,
                        "NORMAL" : 18,
                        "TANGENT" : 19,
                        "TEXCOORD_0" : 20
                    },
                    "indices" : 21,
                    "material" : 0
                }
            ]
        },
        {
            "name" : "Text.005",
            "primitives" : [
                {
                    "attributes" : {
                        "POSITION" : 22,
                        "NORMAL" : 23,
                        "TANGENT" : 24,
                        "TEXCOORD_0" : 25
                    },
                    "indices" : 26,
                    "material" : 2
                }
            ]
        },
        {
            "name" : "Text.006",
            "primitives" : [
                {
                    "attributes" : {
                        "POSITION" : 27,
                        "NORMAL" : 28,
                        "TANGENT" : 29,
                        "TEXCOORD_0" : 30
                    },
                    "indices" : 31,
                    "material" : 2
                }
            ]
        }
    ],
    "accessors" : [
        {
            "bufferView" : 0,
            "componentType" : 5126,
            "count" : 512,
            "max" : [
                0.5809854865074158,
                3.036339044570923,
                0.5809854865074158
            ],
            "min" : [
                -0.5809854865074158,
                -0.04775047302246094,
                -0.5809854865074158
            ],
            "type" : "VEC3"
        },
        {
            "bufferView" : 1,
            "componentType" : 5126,
            "count" : 512,
            "type" : "VEC3"
        },
        {
            "bufferView" : 2,
            "componentType" : 5126,
            "count" : 512,
            "type" : "VEC2"
        },
        {
            "bufferView" : 3,
            "componentType" : 5123,
            "count" : 3060,
            "type" : "SCALAR"
        },
        {
            "bufferView" : 4,
            "componentType" : 5126,
            "count" : 806,
            "max" : [
                0.5869139432907104,
                2.750307083129883,
                0.6292204856872559
            ],
            "min" : [
                -0.5869139432907104,
                -0.0632932186126709,
                -0.6266277432441711
            ],
            "type" : "VEC3"
        },
        {
            "bufferView" : 5,
            "componentType" : 5126,
            "count" : 806,
            "type" : "VEC3"
        },
        {
            "bufferView" : 6,
            "componentType" : 5126,
            "count" : 806,
            "type" : "VEC2"
        },
        {
            "bufferView" : 7,
            "componentType" : 5123,
            "count" : 4404,
            "type" : "SCALAR"
        },
        {
            "bufferView" : 8,
            "componentType" : 5126,
            "count" : 384,
            "max" : [
                0.3107032775878906,
                3.046848773956299,
                0.31070324778556824
            ],
            "min" : [
                -0.31070324778556824,
                2.836437940597534,
                -0.3107032775878906
            ],
            "type" : "VEC3"
        },
        {
            "bufferView" : 9,
            "componentType" : 5126,
            "count" : 384,
            "type" : "VEC3"
        },
        {
            "bufferView" : 10,
            "componentType" : 5126,
            "count" : 384,
            "type" : "VEC2"
        },
        {
            "bufferView" : 11,
            "componentType" : 5123,
            "count" : 2292,
            "type" : "SCALAR"
        },
        {
            "bufferView" : 12,
            "componentType" : 5126,
            "count" : 1350,
            "max" : [
                0.7014729380607605,
                -0.16804826259613037,
                -0.703568696975708
            ],
            "min" : [
                -0.7006231546401978,
                -0.45704489946365356,
                -1.062211275100708
            ],
            "type" : "VEC3"
        },
        {
            "bufferView" : 13,
            "componentType" : 5126,
            "count" : 1350,
            "type" : "VEC3"
        },
        {
            "bufferView" : 14,
            "componentType" : 5126,
            "count" : 1350,
            "type" : "VEC4"
        },
        {
            "bufferView" : 15,
            "componentType" : 5126,
            "count" : 1350,
            "type" : "VEC2"
        },
        {
            "bufferView" : 16,
            "componentType" : 5123,
            "count" : 1632,
            "type" : "SCALAR"
        },
        {
            "bufferView" : 17,
            "componentType" : 5126,
            "count" : 17464,
            "max" : [
                0.9933881759643555,
                -0.0810212716460228,
                3.009399652481079
            ],
            "min" : [
                -1.0899869203567505,
                -0.4614170789718628,
                -0.6818770170211792
            ],
            "type" : "VEC3"
        },
        {
            "bufferView" : 18,
            "componentType" : 5126,
            "count" : 17464,
            "type" : "VEC3"
        },
        {
            "bufferView" : 19,
            "componentType" : 5126,
            "count" : 17464,
            "type" : "VEC4"
        },
        {
            "bufferView" : 20,
            "componentType" : 5126,
            "count" : 17464,
            "type" : "VEC2"
        },
        {
            "bufferView" : 21,
            "componentType" : 5123,
            "count" : 21000,
            "type" : "SCALAR"
        },
        {
            "bufferView" : 22,
            "componentType" : 5126,
            "count" : 1070,
            "max" : [
                3.5548880100250244,
                -0.596358060836792,
                -0.0032672882080078125
            ],
            "min" : [
                0.505944013595581,
                -1.006861686706543,
                -0.6900444030761719
            ],
            "type" : "VEC3"
        },
        {
            "bufferView" : 23,
            "componentType" : 5126,
            "count" : 1070,
            "type" : "VEC3"
        },
        {
            "bufferView" : 24,
            "componentType" : 5126,
            "count" : 1070,
            "type" : "VEC4"
        },
        {
            "bufferView" : 25,
            "componentType" : 5126,
            "count" : 1070,
            "type" : "VEC2"
        },
        {
            "bufferView" : 26,
            "componentType" : 5123,
            "count" : 1296,
            "type" : "SCALAR"
        },
        {
            "bufferView" : 27,
            "componentType" : 5126,
            "count" : 1242,
            "max" : [
                2.3321280479431152,
                -0.3030838966369629,
                0.008136749267578125
            ],
            "min" : [
                0.2258141040802002,
                -0.6001818180084229,
                -0.6928901672363281
            ],
            "type" : "VEC3"
        },
        {
            "bufferView" : 28,
            "componentType" : 5126,
            "count" : 1242,
            "type" : "VEC3"
        },
        {
            "bufferView" : 29,
            "componentType" : 5126,
            "count" : 1242,
            "type" : "VEC4"
        },
        {
            "bufferView" : 30,
            "componentType" : 5126,
            "count" : 1242,
            "type" : "VEC2"
        },
        {
            "bufferView" : 31,
            "componentType" : 5123,
            "count" : 1500,
            "type" : "SCALAR"
        }
    ],
    "bufferViews" : [
        {
            "buffer" : 0,
            "byteLength" : 6144,
            "byteOffset" : 0,
            "target" : 34962
        },
        {
            "buffer" : 0,
            "byteLength" : 6144,
            "byteOffset" : 6144,
            "target" : 34962
        },
        {
            "buffer" : 0,
            "byteLength" : 4096,
            "byteOffset" : 12288,
            "target" : 34962
        },
        {
            "buffer" : 0,
            "byteLength" : 6120,
            "byteOffset" : 16384,
            "target" : 34963
        },
        {
            "buffer" : 0,
            "byteLength" : 9672,
            "byteOffset" : 22504,
            "target" : 34962
        },
        {
            "buffer" : 0,
            "byteLength" : 9672,
            "byteOffset" : 32176,
            "target" : 34962
        },
        {
            "buffer" : 0,
            "byteLength" : 6448,
            "byteOffset" : 41848,
            "target" : 34962
        },
        {
            "buffer" : 0,
            "byteLength" : 8808,
            "byteOffset" : 48296,
            "target" : 34963
        },
        {
            "buffer" : 0,
            "byteLength" : 4608,
            "byteOffset" : 57104,
            "target" : 34962
        },
        {
            "buffer" : 0,
            "byteLength" : 4608,
            "byteOffset" : 61712,
            "target" : 34962
        },
        {
            "buffer" : 0,
            "byteLength" : 3072,
            "byteOffset" : 66320,
            "target" : 34962
        },
        {
            "buffer" : 0,
            "byteLength" : 4584,
            "byteOffset" : 69392,
            "target" : 34963
        },
        {
            "buffer" : 0,
            "byteLength" : 16200,
            "byteOffset" : 73976,
            "target" : 34962
        },
        {
            "buffer" : 0,
            "byteLength" : 16200,
            "byteOffset" : 90176,
            "target" : 34962
        },
        {
            "buffer" : 0,
            "byteLength" : 21600,
            "byteOffset" : 106376,
            "target" : 34962
        },
        {
            "buffer" : 0,
            "byteLength" : 10800,
            "byteOffset" : 127976,
            "target" : 34962
        },
        {
            "buffer" : 0,
            "byteLength" : 3264,
            "byteOffset" : 138776,
            "target" : 34963
        },
        {
            "buffer" : 0,
            "byteLength" : 209568,
            "byteOffset" : 142040,
            "target" : 34962
        },
        {
            "buffer" : 0,
            "byteLength" : 209568,
            "byteOffset" : 351608,
            "target" : 34962
        },
        {
            "buffer" : 0,
            "byteLength" : 279424,
            "byteOffset" : 561176,
            "target" : 34962
        },
        {
            "buffer" : 0,
            "byteLength" : 139712,
            "byteOffset" : 840600,
            "target" : 34962
        },
        {
            "buffer" : 0,
            "byteLength" : 42000,
            "byteOffset" : 980312,
            "target" : 34963
        },
        {
            "buffer" : 0,
            "byteLength" : 12840,
            "byteOffset" : 1022312,
            "target" : 34962
        },
        {
            "buffer" : 0,
            "byteLength" : 12840,
            "byteOffset" : 1035152,
            "target" : 34962
        },
        {
            "buffer" : 0,
            "byteLength" : 17120,
            "byteOffset" : 1047992,
            "target" : 34962
        },
        {
            "buffer" : 0,
            "byteLength" : 8560,
            "byteOffset" : 1065112,
            "target" : 34962
        },
        {
            "buffer" : 0,
            "byteLength" : 2592,
            "byteOffset" : 1073672,
            "target" : 34963
        },
        {
            "buffer" : 0,
            "byteLength" : 14904,
            "byteOffset" : 1076264,
            "target" : 34962
        },
        {
            "buffer" : 0,
            "byteLength" : 14904,
            "byteOffset" : 1091168,
            "target" : 34962
        },
        {
            "buffer" : 0,
            "byteLength" : 19872,
            "byteOffset" : 1106072,
            "target" : 34962
        },
        {
            "buffer" : 0,
            "byteLength" : 9936,
            "byteOffset" : 1125944,
            "target" : 34962
        },
        {
            "buffer" : 0,
            "byteLength" : 3000,
            "byteOffset" : 1135880,
            "target" : 34963
        }
    ],
    "buffers" : [
        {
            "byteLength" : 1138880,
            "uri" : "data:application/octet-stream;base64,"
        }
    ]
}
