{
    "asset" : {
        "generator" : "Khronos glTF Blender I/O v3.3.32",
        "version" : "2.0"
    },
    "extensionsUsed" : [
        "KHR_materials_transmission",
        "KHR_materials_ior"
    ],
    "scene" : 0,
    "scenes" : [
        {
            "name" : "Scene",
            "nodes" : [
                0,
                1,
                2,
                3,
                4,
                5,
                6,
                7,
                8,
                9
            ]
        }
    ],
    "nodes" : [
        {
            "mesh" : 0,
            "name" : "thank you bottle",
            "scale" : [
                16.839012145996094,
                16.839012145996094,
                16.839012145996094
            ],
            "translation" : [
                0.03948716074228287,
                0.018802940845489502,
                -0.0839453637599945
            ]
        },
        {
            "mesh" : 1,
            "name" : "thank you bottle tip",
            "scale" : [
                16.839012145996094,
                16.839012145996094,
                16.839012145996094
            ],
            "translation" : [
                0.03948716074228287,
                0.0039525628089904785,
                -0.0839453637599945
            ]
        },
        {
            "mesh" : 2,
            "name" : "Sphere",
            "scale" : [
                0.41640421748161316,
                0.8312141299247742,
                0.41640421748161316
            ],
            "translation" : [
                0.03762282431125641,
                0.8472930788993835,
                -0.0782504677772522
            ]
        },
        {
            "mesh" : 3,
            "name" : "Sphere.001",
            "scale" : [
                0.41640421748161316,
                0.8312141299247742,
                0.41640421748161316
            ],
            "translation" : [
                -0.011592661961913109,
                0.8472930788993835,
                -0.0782504677772522
            ]
        },
        {
            "mesh" : 4,
            "name" : "Sphere.002",
            "rotation" : [
                0.018747471272945404,
                -0.0678340271115303,
                -0.29798761010169983,
                0.9519718885421753
            ],
            "scale" : [
                0.5034099817276001,
                1.6679673194885254,
                0.5034099817276001
            ],
            "translation" : [
                0.0948651134967804,
                0.876189649105072,
                -0.0839453637599945
            ]
        },
        {
            "mesh" : 5,
            "name" : "Sphere.003",
            "rotation" : [
                -0.05515209212899208,
                0.2963036894798279,
                0.7167733907699585,
                0.6288070678710938
            ],
            "scale" : [
                0.457752525806427,
                0.9137524366378784,
                0.4577524662017822
            ],
            "translation" : [
                0.03948716074228287,
                0.8649970293045044,
                -0.036674439907073975
            ]
        },
        {
            "mesh" : 6,
            "name" : "Sphere.004",
            "scale" : [
                0.41640421748161316,
                0.8312141299247742,
                0.41640421748161316
            ],
            "translation" : [
                0.03762282431125641,
                0.8472930788993835,
                -0.0782504677772522
            ]
        },
        {
            "mesh" : 7,
            "name" : "Sphere.005",
            "scale" : [
                0.5309053063392639,
                1.059777855873108,
                0.5309053063392639
            ],
            "translation" : [
                0.007126998156309128,
                0.8932079076766968,
                0.010197266936302185
            ]
        },
        {
            "mesh" : 8,
            "name" : "Sphere.006",
            "scale" : [
                -2.9188597202301025,
                -0.5820003151893616,
                -1.216456651687622
            ],
            "translation" : [
                0.05395255982875824,
                0.8666393756866455,
                -0.09755263477563858
            ]
        },
        {
            "mesh" : 9,
            "name" : "Text",
            "rotation" : [
                0.7071068286895752,
                0,
                0,
                0.7071068286895752
            ],
            "scale" : [
                0.07150369137525558,
                1.3848330974578857,
                0.07150369137525558
            ],
            "translation" : [
                -0.09507788717746735,
                0.6629955768585205,
                0.08009305596351624
            ]
        }
    ],
    "materials" : [
        {
            "doubleSided" : true,
            "name" : "bottle_blue",
            "pbrMetallicRoughness" : {
                "baseColorFactor" : [
                    0.23829907178878784,
                    0.3716389834880829,
                    0.0411062128841877,
                    1
                ],
                "metallicFactor" : 0.11445783078670502,
                "roughnessFactor" : 0.740963876247406
            }
        },
        {
            "doubleSided" : true,
            "extensions" : {
                "KHR_materials_transmission" : {
                    "transmissionFactor" : 0.9409090876579285
                },
                "KHR_materials_ior" : {
                    "ior" : 2.25
                }
            },
            "name" : "tip_blue",
            "pbrMetallicRoughness" : {
                "baseColorFactor" : [
                    0.016318457201123238,
                    0.7160102128982544,
                    0.011258376762270927,
                    1
                ],
                "metallicFactor" : 0,
                "roughnessFactor" : 0.20481929183006287
            }
        },
        {
            "doubleSided" : true,
            "name" : "Material.001",
            "pbrMetallicRoughness" : {
                "baseColorFactor" : [
                    0.8000000715255737,
                    0.3744576871395111,
                    0.1274746209383011,
                    1
                ],
                "metallicFactor" : 0,
                "roughnessFactor" : 0.5
            }
        },
        {
            "doubleSided" : true,
            "name" : "Material.003",
            "pbrMetallicRoughness" : {
                "baseColorFactor" : [
                    0.03779831901192665,
                    0.8000000715255737,
                    0.032320909202098846,
                    1
                ],
                "metallicFactor" : 0,
                "roughnessFactor" : 0.5
            }
        }
    ],
    "meshes" : [
        {
            "name" : "Plane.003",
            "primitives" : [
                {
                    "attributes" : {
                        "POSITION" : 0,
                        "NORMAL" : 1,
                        "TEXCOORD_0" : 2
                    },
                    "indices" : 3,
                    "material" : 0
                }
            ]
        },
        {
            "name" : "Plane.004",
            "primitives" : [
                {
                    "attributes" : {
                        "POSITION" : 4,
                        "NORMAL" : 5,
                        "TEXCOORD_0" : 6
                    },
                    "indices" : 7,
                    "material" : 1
                }
            ]
        },
        {
            "name" : "Sphere",
            "primitives" : [
                {
                    "attributes" : {
                        "POSITION" : 8,
                        "NORMAL" : 9,
                        "TEXCOORD_0" : 10
                    },
                    "indices" : 11,
                    "material" : 2
                }
            ]
        },
        {
            "name" : "Sphere.001",
            "primitives" : [
                {
                    "attributes" : {
                        "POSITION" : 12,
                        "NORMAL" : 13,
                        "TEXCOORD_0" : 14
                    },
                    "indices" : 11,
                    "material" : 2
                }
            ]
        },
        {
            "name" : "Sphere.002",
            "primitives" : [
                {
                    "attributes" : {
                        "POSITION" : 15,
                        "NORMAL" : 16,
                        "TEXCOORD_0" : 17
                    },
                    "indices" : 11,
                    "material" : 2
                }
            ]
        },
        {
            "name" : "Sphere.003",
            "primitives" : [
                {
                    "attributes" : {
                        "POSITION" : 18,
                        "NORMAL" : 19,
                        "TEXCOORD_0" : 20
                    },
                    "indices" : 11,
                    "material" : 2
                }
            ]
        },
        {
            "name" : "Sphere.004",
            "primitives" : [
                {
                    "attributes" : {
                        "POSITION" : 21,
                        "NORMAL" : 22,
                        "TEXCOORD_0" : 23
                    },
                    "indices" : 11,
                    "material" : 2
                }
            ]
        },
        {
            "name" : "Sphere.005",
            "primitives" : [
                {
                    "attributes" : {
                        "POSITION" : 24,
                        "NORMAL" : 25,
                        "TEXCOORD_0" : 26
                    },
                    "indices" : 11,
                    "material" : 2
                }
            ]
        },
        {
            "name" : "Sphere.006",
            "primitives" : [
                {
                    "attributes" : {
                        "POSITION" : 27,
                        "NORMAL" : 28,
                        "TEXCOORD_0" : 29
                    },
                    "indices" : 11,
                    "material" : 2
                }
            ]
        },
        {
            "name" : "Text.002",
            "primitives" : [
                {
                    "attributes" : {
                        "POSITION" : 30,
                        "NORMAL" : 31,
                        "TEXCOORD_0" : 32
                    },
                    "indices" : 33,
                    "material" : 3
                }
            ]
        }
    ],
    "accessors" : [
        {
            "bufferView" : 0,
            "componentType" : 5126,
            "count" : 32,
            "max" : [
                0.009999999776482582,
                0.04697348549962044,
                0.009999999776482582
            ],
            "min" : [
                -0.009999999776482582,
                0,
                -0.009999999776482582
            ],
            "type" : "VEC3"
        },
        {
            "bufferView" : 1,
            "componentType" : 5126,
            "count" : 32,
            "type" : "VEC3"
        },
        {
            "bufferView" : 2,
            "componentType" : 5126,
            "count" : 32,
            "type" : "VEC2"
        },
        {
            "bufferView" : 3,
            "componentType" : 5123,
            "count" : 174,
            "type" : "SCALAR"
        },
        {
            "bufferView" : 4,
            "componentType" : 5126,
            "count" : 32,
            "max" : [
                0.007182134781032801,
                0.05559975653886795,
                0.007062839809805155
            ],
            "min" : [
                -0.0071740844286978245,
                0.04697348549962044,
                -0.00729337939992547
            ],
            "type" : "VEC3"
        },
        {
            "bufferView" : 5,
            "componentType" : 5126,
            "count" : 32,
            "type" : "VEC3"
        },
        {
            "bufferView" : 6,
            "componentType" : 5126,
            "count" : 32,
            "type" : "VEC2"
        },
        {
            "bufferView" : 7,
            "componentType" : 5123,
            "count" : 174,
            "type" : "SCALAR"
        },
        {
            "bufferView" : 8,
            "componentType" : 5126,
            "count" : 1984,
            "max" : [
                0.009999997913837433,
                0.009999999776482582,
                0.009999996051192284
            ],
            "min" : [
                -0.009999994188547134,
                -0.009999999776482582,
                -0.009999999776482582
            ],
            "type" : "VEC3"
        },
        {
            "bufferView" : 9,
            "componentType" : 5126,
            "count" : 1984,
            "type" : "VEC3"
        },
        {
            "bufferView" : 10,
            "componentType" : 5126,
            "count" : 1984,
            "type" : "VEC2"
        },
        {
            "bufferView" : 11,
            "componentType" : 5123,
            "count" : 2880,
            "type" : "SCALAR"
        },
        {
            "bufferView" : 12,
            "componentType" : 5126,
            "count" : 1984,
            "max" : [
                0.009999997913837433,
                0.009999999776482582,
                0.009999996051192284
            ],
            "min" : [
                -0.009999994188547134,
                -0.009999999776482582,
                -0.009999999776482582
            ],
            "type" : "VEC3"
        },
        {
            "bufferView" : 13,
            "componentType" : 5126,
            "count" : 1984,
            "type" : "VEC3"
        },
        {
            "bufferView" : 14,
            "componentType" : 5126,
            "count" : 1984,
            "type" : "VEC2"
        },
        {
            "bufferView" : 15,
            "componentType" : 5126,
            "count" : 1984,
            "max" : [
                0.009999997913837433,
                0.009999999776482582,
                0.009999996051192284
            ],
            "min" : [
                -0.009999994188547134,
                -0.009999999776482582,
                -0.009999999776482582
            ],
            "type" : "VEC3"
        },
        {
            "bufferView" : 16,
            "componentType" : 5126,
            "count" : 1984,
            "type" : "VEC3"
        },
        {
            "bufferView" : 17,
            "componentType" : 5126,
            "count" : 1984,
            "type" : "VEC2"
        },
        {
            "bufferView" : 18,
            "componentType" : 5126,
            "count" : 1984,
            "max" : [
                0.009999997913837433,
                0.009999999776482582,
                0.009999996051192284
            ],
            "min" : [
                -0.009999994188547134,
                -0.009999999776482582,
                -0.009999999776482582
            ],
            "type" : "VEC3"
        },
        {
            "bufferView" : 19,
            "componentType" : 5126,
            "count" : 1984,
            "type" : "VEC3"
        },
        {
            "bufferView" : 20,
            "componentType" : 5126,
            "count" : 1984,
            "type" : "VEC2"
        },
        {
            "bufferView" : 21,
            "componentType" : 5126,
            "count" : 1984,
            "max" : [
                0.009999997913837433,
                0.009999999776482582,
                0.009999996051192284
            ],
            "min" : [
                -0.009999994188547134,
                -0.009999999776482582,
                -0.009999999776482582
            ],
            "type" : "VEC3"
        },
        {
            "bufferView" : 22,
            "componentType" : 5126,
            "count" : 1984,
            "type" : "VEC3"
        },
        {
            "bufferView" : 23,
            "componentType" : 5126,
            "count" : 1984,
            "type" : "VEC2"
        },
        {
            "bufferView" : 24,
            "componentType" : 5126,
            "count" : 1984,
            "max" : [
                0.009999997913837433,
                0.009999999776482582,
                0.009999996051192284
            ],
            "min" : [
                -0.009999994188547134,
                -0.009999999776482582,
                -0.009999999776482582
            ],
            "type" : "VEC3"
        },
        {
            "bufferView" : 25,
            "componentType" : 5126,
            "count" : 1984,
            "type" : "VEC3"
        },
        {
            "bufferView" : 26,
            "componentType" : 5126,
            "count" : 1984,
            "type" : "VEC2"
        },
        {
            "bufferView" : 27,
            "componentType" : 5126,
            "count" : 1984,
            "max" : [
                0.009999997913837433,
                0.009999999776482582,
                0.009999996051192284
            ],
            "min" : [
                -0.009999994188547134,
                -0.009999999776482582,
                -0.009999999776482582
            ],
            "type" : "VEC3"
        },
        {
            "bufferView" : 28,
            "componentType" : 5126,
            "count" : 1984,
            "type" : "VEC3"
        },
        {
            "bufferView" : 29,
            "componentType" : 5126,
            "count" : 1984,
            "type" : "VEC2"
        },
        {
            "bufferView" : 30,
            "componentType" : 5126,
            "count" : 181,
            "max" : [
                3.7810001373291016,
                0,
                0.006000000052154064
            ],
            "min" : [
                0,
                0,
                -0.6820000410079956
            ],
            "type" : "VEC3"
        },
        {
            "bufferView" : 31,
            "componentType" : 5126,
            "count" : 181,
            "type" : "VEC3"
        },
        {
            "bufferView" : 32,
            "componentType" : 5126,
            "count" : 181,
            "type" : "VEC2"
        },
        {
            "bufferView" : 33,
            "componentType" : 5123,
            "count" : 393,
            "type" : "SCALAR"
        }
    ],
    "bufferViews" : [
        {
            "buffer" : 0,
            "byteLength" : 384,
            "byteOffset" : 0,
            "target" : 34962
        },
        {
            "buffer" : 0,
            "byteLength" : 384,
            "byteOffset" : 384,
            "target" : 34962
        },
        {
            "buffer" : 0,
            "byteLength" : 256,
            "byteOffset" : 768,
            "target" : 34962
        },
        {
            "buffer" : 0,
            "byteLength" : 348,
            "byteOffset" : 1024,
            "target" : 34963
        },
        {
            "buffer" : 0,
            "byteLength" : 384,
            "byteOffset" : 1372,
            "target" : 34962
        },
        {
            "buffer" : 0,
            "byteLength" : 384,
            "byteOffset" : 1756,
            "target" : 34962
        },
        {
            "buffer" : 0,
            "byteLength" : 256,
            "byteOffset" : 2140,
            "target" : 34962
        },
        {
            "buffer" : 0,
            "byteLength" : 348,
            "byteOffset" : 2396,
            "target" : 34963
        },
        {
            "buffer" : 0,
            "byteLength" : 23808,
            "byteOffset" : 2744,
            "target" : 34962
        },
        {
            "buffer" : 0,
            "byteLength" : 23808,
            "byteOffset" : 26552,
            "target" : 34962
        },
        {
            "buffer" : 0,
            "byteLength" : 15872,
            "byteOffset" : 50360,
            "target" : 34962
        },
        {
            "buffer" : 0,
            "byteLength" : 5760,
            "byteOffset" : 66232,
            "target" : 34963
        },
        {
            "buffer" : 0,
            "byteLength" : 23808,
            "byteOffset" : 71992,
            "target" : 34962
        },
        {
            "buffer" : 0,
            "byteLength" : 23808,
            "byteOffset" : 95800,
            "target" : 34962
        },
        {
            "buffer" : 0,
            "byteLength" : 15872,
            "byteOffset" : 119608,
            "target" : 34962
        },
        {
            "buffer" : 0,
            "byteLength" : 23808,
            "byteOffset" : 135480,
            "target" : 34962
        },
        {
            "buffer" : 0,
            "byteLength" : 23808,
            "byteOffset" : 159288,
            "target" : 34962
        },
        {
            "buffer" : 0,
            "byteLength" : 15872,
            "byteOffset" : 183096,
            "target" : 34962
        },
        {
            "buffer" : 0,
            "byteLength" : 23808,
            "byteOffset" : 198968,
            "target" : 34962
        },
        {
            "buffer" : 0,
            "byteLength" : 23808,
            "byteOffset" : 222776,
            "target" : 34962
        },
        {
            "buffer" : 0,
            "byteLength" : 15872,
            "byteOffset" : 246584,
            "target" : 34962
        },
        {
            "buffer" : 0,
            "byteLength" : 23808,
            "byteOffset" : 262456,
            "target" : 34962
        },
        {
            "buffer" : 0,
            "byteLength" : 23808,
            "byteOffset" : 286264,
            "target" : 34962
        },
        {
            "buffer" : 0,
            "byteLength" : 15872,
            "byteOffset" : 310072,
            "target" : 34962
        },
        {
            "buffer" : 0,
            "byteLength" : 23808,
            "byteOffset" : 325944,
            "target" : 34962
        },
        {
            "buffer" : 0,
            "byteLength" : 23808,
            "byteOffset" : 349752,
            "target" : 34962
        },
        {
            "buffer" : 0,
            "byteLength" : 15872,
            "byteOffset" : 373560,
            "target" : 34962
        },
        {
            "buffer" : 0,
            "byteLength" : 23808,
            "byteOffset" : 389432,
            "target" : 34962
        },
        {
            "buffer" : 0,
            "byteLength" : 23808,
            "byteOffset" : 413240,
            "target" : 34962
        },
        {
            "buffer" : 0,
            "byteLength" : 15872,
            "byteOffset" : 437048,
            "target" : 34962
        },
        {
            "buffer" : 0,
            "byteLength" : 2172,
            "byteOffset" : 452920,
            "target" : 34962
        },
        {
            "buffer" : 0,
            "byteLength" : 2172,
            "byteOffset" : 455092,
            "target" : 34962
        },
        {
            "buffer" : 0,
            "byteLength" : 1448,
            "byteOffset" : 457264,
            "target" : 34962
        },
        {
            "buffer" : 0,
            "byteLength" : 786,
            "byteOffset" : 458712,
            "target" : 34963
        }
    ],
    "buffers" : [
        {
            "byteLength" : 459500,
            "uri" : "data:application/octet-stream;base64,"
        }
    ]
}
